<?xml version="1.0" encoding="UTF-8"?>
<svg id="Layer_2" xmlns="http://www.w3.org/2000/svg" viewBox="0 0 162.52 117.3">
  <defs>
    <style>
      .cls-1 {
        fill: #c1272d;
      }

      .cls-2 {
        fill: #fbb03b;
      }

      .cls-3 {
        fill: #ff9a00;
      }
    </style>
  </defs>
  <g id="Layer_2-2" data-name="Layer_2">
    <g>
      <path class="cls-1" d="M125.77,54.92l-14.72-24.54c-1.42-2.37.28-5.38,3.05-5.38h29.45c2.76,0,4.47,3.01,3.05,5.38l-14.72,24.54c-1.38,2.3-4.71,2.3-6.09,0Z"/>
      <circle class="cls-1" cx="129.32" cy="10.5" r="10.5"/>
      <g>
        <path class="cls-2" d="M95.83,92.06c.52.48,1.21.78,1.98.78h9.33c1.62,0,2.94-1.31,2.94-2.93v-12.21c0-.44-.58-.56-.76-.16-2.73,6.21-7.37,11.18-13.5,14.51Z"/>
        <path class="cls-2" d="M162.4,37.63c0-1.62-1.32-2.93-2.94-2.93h-8.95c-1.04,0-2,.54-2.53,1.43l-16.62,27.93c-1.13,1.9-3.88,1.92-5.04.02l-17.03-28.01c-.53-.88-1.48-1.41-2.51-1.41h-8.96c-.75,0-1.43.28-1.95.75,2.11,1.16,4.07,2.52,5.84,4.08,6.78,5.99,10.36,14.38,10.36,24.25,0,1.96-.15,3.86-.43,5.69-.08.54.39,1.01.93.93,1.08-.17,2.25.23,2.94,1.37l8.56,13.99c.53.87,1.48,1.4,2.5,1.4h4c1.04,0,1.99-.54,2.52-1.43l8.71-14.59c1.53-2.56,5.45-1.48,5.46,1.49l.08,17.36c0,1.62,1.32,2.92,2.94,2.92h9.26c1.63,0,2.94-1.31,2.94-2.94l-.12-52.3Z"/>
      </g>
      <path class="cls-2" d="M29.79,34.59l-26.82-.02h0c-1.62,0-2.94,1.31-2.94,2.94L0,89.81c0,1.62,1.31,2.94,2.94,2.94l28.48.02h.04c15.6,0,23.9-5.89,23.91-15.94,0-5.49-2.45-9.73-6.63-12.44-1.55-1.01-1.7-3.24-.36-4.52,2.7-2.58,4.17-6.04,4.17-10.06,0-8.98-7.47-15.21-22.76-15.22ZM16.31,49.4c0-1.62,1.32-2.94,2.94-2.94h8.37c5.49,0,8.31,1.92,8.31,5.58,0,3.74-2.83,5.65-8.3,5.65h-8.38c-1.62,0-2.94-1.32-2.94-2.95v-5.34ZM30.11,80.88h-10.88c-1.62,0-2.94-1.32-2.94-2.95v-5.93c0-1.62,1.32-2.94,2.94-2.94h10.86c5.65.01,8.64,1.92,8.64,5.91,0,3.99-2.99,5.89-8.63,5.89Z"/>
      <g>
        <path class="cls-1" d="M75.58,92.81h.03c19.27,0,32.47-11.21,32.49-29.07.01-17.87-13.2-29.1-32.48-29.11h-24.57s0-.01,0-.01c-.96,0-1.8.47-2.34,1.18.32.2.65.39.95.6,4.52,3.21,6.91,7.85,6.91,13.42,0,4.22-1.36,7.99-3.94,10.99-.54.63-.46,1.57.19,2.09,4.25,3.36,6.57,8.24,6.57,13.93,0,3.89-1.23,11.29-9.75,15.6.42.23.88.36,1.39.37h24.57ZM64.55,50.69c0-1.62,1.32-2.94,2.94-2.94h7.45c9.89.01,16.54,5.92,16.53,15.97,0,10.05-6.65,15.95-16.54,15.95h-7.47c-1.62,0-2.94-1.32-2.94-2.95l.02-26.04Z"/>
        <polygon class="cls-3" points="74.92 77.68 74.92 79.68 74.93 77.68 74.92 77.68"/>
      </g>
      <g>
        <path class="cls-1" d="M9.94,100.53c2.99,0,5.06,1.13,6.73,2.88l-2.65,2.52c-1.1-1.07-2.51-1.76-4.09-1.76-2.8,0-4.61,2.1-4.61,4.74s1.81,4.74,4.61,4.74c1.57,0,2.99-.68,4.09-1.76l2.57,2.52c-1.57,1.65-3.75,2.88-6.65,2.88-4.98,0-8.51-3.69-8.51-8.38s3.54-8.38,8.51-8.38Z"/>
        <path class="cls-1" d="M26.37,100.53c4.95,0,8.46,3.69,8.46,8.38s-3.51,8.38-8.46,8.38-8.46-3.69-8.46-8.38,3.48-8.38,8.46-8.38ZM26.37,113.66c2.78,0,4.56-2.1,4.56-4.74s-1.78-4.74-4.56-4.74-4.56,2.1-4.56,4.74,1.76,4.74,4.56,4.74Z"/>
        <path class="cls-1" d="M37.5,101.06h4.06l6.1,9.33v-9.33h3.83v15.72h-4.01l-6.13-9.35v9.35h-3.85v-15.72Z"/>
        <path class="cls-1" d="M57.68,112.17c0,.92.73,1.65,1.62,1.65.97,0,1.57-.55,1.57-1.36,0-1.18-1.55-1.52-2.83-1.96-2.65-.94-4.11-2.17-4.11-4.87s2.38-5.08,5.34-5.08c3.48,0,5.14,2.23,5.34,5.14h-3.62c0-.89-.55-1.62-1.62-1.62-.84,0-1.65.5-1.65,1.52,0,1.18,1.44,1.39,2.78,1.78,2.8.84,4.11,2.41,4.11,4.87,0,2.78-2.36,5.08-5.32,5.08-3.43,0-5.37-2.31-5.37-5.13h3.75Z"/>
        <path class="cls-1" d="M67.21,101.06h3.83v9.85c0,2.1,1,2.83,2.33,2.83,1.47,0,2.38-.73,2.38-2.83v-9.85h3.85v10.43c0,3.72-2.78,5.82-6.24,5.82s-6.16-2.2-6.16-5.82v-10.43Z"/>
        <path class="cls-1" d="M82.12,101.06h3.85v12.42h6.84v3.3h-10.69v-15.72Z"/>
        <path class="cls-1" d="M95.35,104.46h-3.51v-3.41h10.95v3.41h-3.56v12.31h-3.88v-12.31Z"/>
        <path class="cls-1" d="M112.14,100.53c4.95,0,8.46,3.69,8.46,8.38s-3.51,8.38-8.46,8.38-8.46-3.69-8.46-8.38,3.48-8.38,8.46-8.38ZM112.14,113.66c2.78,0,4.56-2.1,4.56-4.74s-1.78-4.74-4.56-4.74-4.56,2.1-4.56,4.74,1.76,4.74,4.56,4.74Z"/>
        <path class="cls-1" d="M123.28,101.06h6.58c3.38,0,5.58,2.04,5.58,5,0,2.75-1.39,4.3-3.72,4.87l4.25,5.84h-4.82l-4.01-5.87v5.87h-3.85v-15.72ZM130.22,107.87c.87,0,1.44-.89,1.44-1.81s-.68-1.73-1.55-1.73h-2.99v3.54h3.09Z"/>
        <path class="cls-1" d="M137.32,101.06h10.4v3.41h-6.55v2.83h6.05v3.35h-6.05v2.83h6.84v3.3h-10.69v-15.72Z"/>
        <path class="cls-1" d="M153.54,112.17c0,.92.73,1.65,1.62,1.65.97,0,1.57-.55,1.57-1.36,0-1.18-1.55-1.52-2.83-1.96-2.65-.94-4.11-2.17-4.11-4.87s2.38-5.08,5.34-5.08c3.48,0,5.14,2.23,5.34,5.14h-3.62c0-.89-.55-1.62-1.62-1.62-.84,0-1.65.5-1.65,1.52,0,1.18,1.44,1.39,2.78,1.78,2.8.84,4.11,2.41,4.11,4.87,0,2.78-2.36,5.08-5.32,5.08-3.43,0-5.37-2.31-5.37-5.13h3.75Z"/>
      </g>
    </g>
  </g>
</svg>